<?xml version="1.0" encoding="utf-8"?>
<!-- Generator: Adobe Illustrator 27.9.0, SVG Export Plug-In . SVG Version: 6.00 Build 0)  -->
<svg version="1.1" id="Layer_1" xmlns="http://www.w3.org/2000/svg" xmlns:xlink="http://www.w3.org/1999/xlink" x="0px" y="0px"
	 viewBox="0 0 553 1003" style="enable-background:new 0 0 553 1003;" xml:space="preserve">
<style type="text/css">
	.st0{fill:#FFFFFF;}
	.st1{clip-path:url(#SVGID_00000078028805150489667480000003029509870536240019_);}
	.st2{fill:none;stroke:#231F20;stroke-miterlimit:10;}
	.st3{fill:none;stroke:#EE3437;stroke-miterlimit:10;}
</style>
<g>
	<path class="st0" d="M0.3,130.6c0.4,10.8,1.4,18.6,2.8,23.3c1.1,3.9,2.1,10.4,2.1,14.6s0.7,11.2,1.6,15.4
		c0.8,4.4,1.7,10.9,1.9,14.9c0.2,3.9,0.9,12.8,1.5,20.1c0.7,7.6,1.1,28.4,1,49.5c-0.1,20.1-0.3,54.5-0.4,76.1
		c0,21.9-0.3,39.9-0.6,39.9c-0.3,0-0.4,32.8-0.3,73c0.1,40.1-0.1,73-0.5,73c-1,0-1.3,9.4-1.6,61.3c-0.2,25.8-0.5,48-0.7,49.5
		c-0.2,1.3,0.3,6.5,1,11.2c0.9,5.5,1.1,9.4,0.4,10.4c-0.5,1-1,7-1.1,13.6c-0.2,6.5-0.7,18.5-1.3,26.6c-1.1,17.5-0.5,54.2,1,56.6
		c1.3,2.1,0.7,16.7-0.7,18c-0.8,0.5-0.9,2.3-0.2,5.5c0.5,2.6,0.7,5.2,0.5,5.7c-0.2,0.8-0.7,7-1,14.1C5.3,810.1,4.5,817.4,4,819
		c-0.7,2.3-0.6,3.4,0.3,3.4c1.2,0,1.2,0.5,0,2.3c-0.8,1.3-1,3.6-0.5,5.7c0.4,2.1,0.7,7.3,0.5,11.7c-0.1,4.4,0.5,12.5,1.3,18
		c1.6,9.4,1.6,9.6,5.8,7.8c2.4-1,6.6-2.1,9.5-2.6c2.8-0.3,6.4-1.3,7.8-2.3c1.6-1,3.3-0.5,4.1,1.3c0.7,1.6,5.3,3.4,10.1,4.2
		c8.1,1,14.3,5.7,14.3,10.9c0,1.3,1.6,5,3.4,8.1c1.9,2.9,3.8,7.6,4.1,10.2c0.4,3.6,1.4,4.7,4.3,4.2c4.6-1,7.5-2.6,10-6.3
		c1.1-1.6,2.1-2.1,2.4-1.6c0.3,0.8,3.3,1.8,6.8,2.6c4.6,1,6.9,0.5,8.6-2.6c1.3-2.1,3.2-3.9,4.3-3.9c1.1,0,2.1-1.3,2.3-3.1
		c0.5-3.9,9.8-3.9,10.7,0.3c0.5,1.8,3.1,3.1,6.2,3.4c3,0,8.6,1.8,12.4,3.9c3.9,2.1,7.7,3.9,8.5,4.4c0.8,0.3,2.2,1.6,3.1,2.6
		c0.8,0.8,4.6,2.1,8.5,2.6c3.8,0.5,10,2.9,13.7,5.2s7.2,3.6,7.7,2.9c0.4-0.8,2.1,0,3.7,1.6c1.5,1.6,6.7,2.9,11.5,2.9
		c6.3-0.3,9,0.8,9.9,3.6c0.6,2.1,2,3.6,3,3.6s2.1,1.3,2.4,2.6c0.4,1.6,1,2.1,1.5,1.3s2,0,3.2,1.6c1.3,1.8,5.5,3.4,9.3,3.6
		c7.8,0.3,9.3,1,11.4,6.3c1.2,2.9,1.6,2.9,2.6-0.5c0.6-2.3,2-4.2,3.1-4.2c1,0,4.3-0.5,7.2-1c2.9-0.5,5.5,0,5.8,1.3
		c0.3,1,1,1.6,1.5,0.5c0.5-0.8,2.4,0,4.3,1.6c2.2,1.8,4.2,1.8,5.9,0.3c1.9-2.1,2.8-1.6,3.8,1.3c0.7,2.3,2.4,3.4,4.5,2.6
		c2.1-0.5,3.8,0.5,4.5,2.6c1.1,3.4,8.3,8.1,10.3,6.8c0.4-0.5,1.4,0.5,2.2,2.1c0.7,1.8,3.5,3.1,6.1,3.1s6.3,1.8,8.3,4.2
		c4.1,4.7,8.9,6.5,11,4.2c0.8-1,2-1.6,2.5-1c1,0.8,5,1.8,13,3.6c2.2,0.5,4.7,1.6,5.5,2.6c0.8,0.8,4.8,1.8,8.9,2.3
		c6.4,0.5,7.5,0,7.9-3.9c0.2-2.6,0.9-3.9,1.4-3.1c0.6,1,3.4,2.1,6.2,2.6c10.6,1.8,14.5,3.1,15.5,4.7c0.6,1,2,1,3.1,0.3
		c1.1-1,3.5-0.5,5.3,1c1.8,1.6,5.5,3.4,8.2,4.2c6.4,1.3,11.1,5.2,13,10.2c1,2.3,3.2,3.9,5.9,3.6c2.4,0,5.9,1.3,7.9,2.9
		c2,1.8,4.1,2.6,4.6,1.6c0.6-0.8,3,0.8,5.5,3.9c4.9,5.7,8.6,4.2,10.5-4.4c0.9-4.2,1-4.2,1.1-0.5c0,8.6,8,7,12.4-2.6
		c0.9-1.8,2.9-2.9,4.6-2.3c1.6,0.8,3,0.3,3-0.8c0-3.4,9.5-3.9,13.2-0.8c3.1,2.9,4.6,2.9,8.5-0.3c2.5-2.1,5-3.1,5.4-2.3
		c0.4,0.5,3.3-1.3,6.5-4.4c4-3.9,7-5.2,10.3-4.2c3.4,0.8,5.4,0,7.6-3.6c4.7-7.6,7.7-10.7,11.5-11.2c4.5-1,7-3.9,7-8.1
		c0-4.2,5.8-6.5,7.3-2.9c1,2.3,4.3,2.9,12.7,1.3c0.8,0,2.5,0.5,3.8,1.3c2.2,1.3,2.3,0.8,1.6-7c-0.3-4.7-1.9-14.9-3.5-22.9
		c-1.6-7.8-2.9-17.2-2.8-20.9c0.1-6.5-0.6-21.6-1.7-34.4c-0.3-3.9-1.6-12.3-3-18.2c-1.3-6.5-2.5-17.2-2.8-25.5
		c-0.2-8.1-1.3-18.5-2.4-23.5c-2.4-11.5-3.3-20.1-2.1-22.2c0.5-0.8,0.5-3.4-0.1-6.3c-0.5-2.6-1-8.1-1-11.7c0-3.9-0.6-8.6-1.4-10.4
		c-0.9-2.3-1.2-7-0.8-13.6c1-18.5-0.7-51.1-3.4-64.4c-3.5-17.2-4.5-49.3-3-94.9c0.5-16.7,0.4-25.3-0.3-27.6
		c-0.6-1.8-1.4-15.1-1.8-29.2c-0.3-14.3-1-27.4-1.5-28.9c-0.6-1.8-0.7-7.6-0.4-12.8c0.5-6.3,0.3-11.2-0.8-15.1
		c-1.7-7-1.5-25.5,0.3-31.3c1-3.1,1-7,0.2-17.7c-0.9-10.4-0.9-18.8,0-32.1c0.6-10.2,1.3-24.2,1.5-31.3c0.6-24.5,1.6-43,2.5-43
		c0.5,0,0.9-7,0.9-15.6c0-11.5-0.7-19.3-2.5-29.2c-1.4-7.3-2.5-17.7-2.5-22.7c0-5.2-0.7-11.5-1.5-14.3c-1-3.4-1.1-6.5-0.4-11.5
		c0.5-3.6,0.7-9.9,0.4-13.6c-0.3-4.2,0.1-11.7,1.1-18c1.3-8.3,1.4-12.5,0.6-16.7c-1.7-9-2.8-19.6-3.6-36.1v-0.3
		c-0.4-3-0.7-6.5-1.1-10.8c-0.3-4.1-0.8-7.8-1.1-8.3s0-1.6,0.7-2.4c0.9-1.1,1-1.7,0.1-2.2c-2.6-1.7-3.3-6.4-1.7-11.3
		c1.8-5.4,1.8-4.6,1.5-19.3c-0.2-7.7-0.7-12.1-2-15c-1.2-3-1.6-6.3-1.4-12.1c0.3-10.9-0.5-16.4-2.8-18.7c-1.5-1.5-1.9-3.4-1.9-8.9
		c0-3.9,0.1-7.3,0.4-7.5c0.2-0.2,3.1-0.6,6.6-0.9c3.4-0.2,6.6-0.7,7.1-1c0.6-0.3,1-2.7,1-5.1V2.8l-22.7,0.6
		c-12.6,0.3-25.3,0.8-28.3,1.1c-3,0.2-16.4,0.6-29.8,0.9C428,5.6,417,5.9,416.9,6.1c-0.1,0.2-1,1.8-1.9,3.6
		c-1.4,2.3-1.8,5.4-1.8,12.6v9.4l-5.8,0.7c-3.3,0.4-7.1,0.2-8.5-0.3c-2.6-1-2.7-1.4-2.7-8v-6.9l4.4-2.1c2.7-1.4,4.8-3.2,5.5-4.9
		c0.7-1.5,2.3-4.1,3.6-5.6c2.3-2.7,3.2-4.6,2-4.6c-0.2,0-0.8,0.6-1.2,1.3s-2.8,1.9-5.3,2.7c-2.5,0.7-5,1.7-5.6,2.2
		c-2.4,1.7-23.3,2.4-40.5,1.2l-9.7-0.6l-4,5.3c-5.6,7.6-6,8.7-5.6,14.8c0.2,3.7,0,5.8-0.9,6.3c-1.7,1.1-14.5,1-15.2-0.2
		c-0.7-1.1-0.9-14-0.2-14.7c0.3-0.2,3-0.8,6-1.2c7.1-1,8.9-2.4,8.5-7c-0.3-4.1,2.2-3.8-21.6-2.8c-7.8,0.3-14.6,0.8-15.1,1.1
		c-1.5,0.9-1.1,8.4,0.5,9.7c1.1,0.9,1.4,3.1,1.3,8.5l-0.2,7.2l-4.2,0.6c-2.3,0.4-6,0.4-8.3,0c-3.7-0.6-4.1-0.9-4.4-3.8
		c-0.2-1.7-0.1-5,0-7.3l0.4-4.2l6.1,0.2l6.2,0.2l0.3-4.9c0.2-3.7,0-4.7-1-4.4c-0.7,0.3-4,0.1-7.3-0.4c-5.8-0.9-17.8-1-28.1-0.3
		c-2.7,0.2-11.9,0.3-20.4,0.3c-84.5-0.1-85-0.1-85,2.2c0,1-0.7,4.5-1.5,7.7c-1.8,7-2,15.9-0.2,17c1.5,1-9.8,2-13.3,1.2
		c-2.4-0.5-2.5-1-2.8-8.1c-0.3-7.2-0.1-7.7,2-8.4c1.3-0.4,3.4-0.7,4.8-0.6c2.4,0.2,3-0.7,6.7-9.8c0.1-0.3-0.4-1.4-1.2-2.4
		c-1.4-1.9-1.6-1.9-3.4-0.2c-1.6,1.5-4.6,1.8-20.3,2.2c-10,0.3-22.1,0.7-26.8,0.9c-4.7,0.2-10.9,0.4-13.7,0.4
		c-4.8,0.1-5.3,0.3-5.3,2.4c0,1.3-0.5,2.8-1.1,3.4c-0.7,0.7-0.8,1.9-0.3,3c0.4,1,0.8,5.5,0.8,10l0.1,8.3l-5,0.1
		c-5.2,0.2-9.8,0-10.3-0.5c-0.3-0.3-0.5-12-0.3-14.3c0-0.6,1.6-1.5,3.3-1.9c3.6-0.7,4.8-2,7.9-7.8c2.5-4.7,1.3-6.8-2.5-4.3
		c-1.9,1.3-6.2,1.8-19.8,2.3c-9.5,0.3-18.2,0.8-19.3,0.9c-1.1,0.2-7.7,0.4-14.7,0.4C9.4,14,8.2,14.2,8.2,15.8c0,1-0.7,2.8-1.6,4.1
		c-1.3,1.8-1.4,2.5-0.4,3.1c0.6,0.4,1.1,1,1.1,1.4c-0.3,2.3,0,3.6,0.8,3.1c0.6-0.3,1.1,4.5,1.3,12.2c0.4,17.8,0.1,20.4-2.7,23.8
		C5.3,65,4.2,67,4.2,67.9c0.1,1.3,0.3,1.3,1.5-0.3c1.9-2.6,1.9-2.1-0.4,4.2c-1.5,3.9-2,7.8-1.9,14.7c0,5.1-0.3,9.8-0.7,10.5
		c-0.9,1.4-1.2,4.2-2.3,17.8C-0.1,121.2-0.1,126.5,0.3,130.6z M449,16.5c0.4,0.3,0.7,3.8,0.7,7.6l0.1,7l-8-0.3l-8.1-0.3v-7v-7
		l4.5-0.5C443.7,15.4,448.1,15.6,449,16.5z M486.3,16.2c1.3,2,1.1,12.6-0.2,13.4c-0.7,0.4-4.5,0.7-8.5,0.8l-7.4,0.1v-7.6v-7.6
		l7.7-0.2C483.3,14.9,485.8,15.3,486.3,16.2z M266.2,19.9c0,0.4-0.4,1.1-1,1.7c-0.5,0.5-1.1,3.7-1.2,6.9l-0.3,6l-5.2,0.5
		c-7.9,0.8-9,0.1-9.5-6.2c-0.5-6.7-0.1-8.4,2.3-9.4C253.5,18.4,266.2,18.8,266.2,19.9z M376,19.3c0.8,1,0.7,11.4-0.2,12.4
		c-0.1,0.2-12.4,0.5-14.3,0.4c-1.6-0.1-2.7-9.5-1.3-12c0.9-1.8,2-2.1,7.9-2.1C372.4,18,375.3,18.5,376,19.3z M229.2,19.8
		c0,0.5-0.3,1.1-0.6,1.5c-1,1-1.1,12.1-0.1,13.4c0.7,1,0.1,1.3-2.4,1.4c-4.3,0.1-12.3-0.2-12.6-0.5c-0.6-0.5-1-11.9-0.6-13.6
		c0.4-1.6,1.7-2,6.7-2.3c3.3-0.2,6.9-0.4,7.9-0.5C228.4,19.1,229.2,19.4,229.2,19.8z M190.7,21c2.5,1,2.6,1.3,2,5.8
		c-0.4,2.6-0.8,5.6-0.9,6.7c-0.2,3.3-2.3,4.2-8.8,3.4c-3.2-0.4-6.1-0.9-6.2-1c-0.2-0.2-0.6-3.5-0.8-7.2c-0.4-7.5-0.7-7.2,7.2-8
		c1.9-0.2,3.8-0.5,4.2-0.5C187.8,20.1,189.3,20.5,190.7,21z M118.5,29.7l-0.2,7.8l-7.4,0.3l-7.4,0.3l-0.7-3.2
		c-0.3-1.7-0.6-5.1-0.6-7.5c0-4.9,0.1-4.9,10-5.2l6.5-0.3L118.5,29.7z M44.7,24.7c-0.5,1-0.9,3.4-1.1,5.3s-0.1,2.6,0.2,1.5
		c1.3-4.5,2.4-3.7,2.4,1.7c0,4.2-0.4,5.7-1.6,6.2c-1.4,0.5-1.6,0.1-1-2.4c0.3-1.9,0.2-2.9-0.4-2.5c-0.6,0.3-1,1.7-1,3.1
		c0,2.4-1.2,2.9-6.5,2.5c-6.4-0.5-6.5-0.6-6.5-8.5c0-8.5-0.3-8.2,10.4-8.5C44.8,23,45.3,23.2,44.7,24.7z M434.2,72.5
		c8.6,4.5,7.4,14.8-2.1,18.1c-4.8,1.6-11.1-1.5-12.8-6.2C416.3,76,425.9,68.2,434.2,72.5z M89.6,78.3c2.2,1.8,2.8,3.1,3,7.4
		c0.3,6.4-1.4,8.9-7,10.1c-5.3,1.2-9.7-0.6-11.8-4.7c-2.2-4.1-2-7.3,0.4-10.4C78.5,75.2,84.5,74.3,89.6,78.3z"/>
	<g>
		<defs>
			<path id="SVGID_1_" d="M0.3,130.6c0.4,10.8,1.4,18.6,2.8,23.3c1.1,3.9,2.1,10.4,2.1,14.6s0.7,11.2,1.6,15.4
				c0.8,4.4,1.7,10.9,1.9,14.9c0.2,3.9,0.9,12.8,1.5,20.1c0.7,7.6,1.1,28.4,1,49.5c-0.1,20.1-0.3,54.5-0.4,76.1
				c0,21.9-0.3,39.9-0.6,39.9c-0.3,0-0.4,32.8-0.3,73c0.1,40.1-0.1,73-0.5,73c-1,0-1.3,9.4-1.6,61.3c-0.2,25.8-0.5,48-0.7,49.5
				c-0.2,1.3,0.3,6.5,1,11.2c0.9,5.5,1.1,9.4,0.4,10.4c-0.5,1-1,7-1.1,13.6c-0.2,6.5-0.7,18.5-1.3,26.6c-1.1,17.5-0.5,54.2,1,56.6
				c1.3,2.1,0.7,16.7-0.7,18c-0.8,0.5-0.9,2.3-0.2,5.5c0.5,2.6,0.7,5.2,0.5,5.7c-0.2,0.8-0.7,7-1,14.1C5.3,810.1,4.5,817.4,4,819
				c-0.7,2.3-0.6,3.4,0.3,3.4c1.2,0,1.2,0.5,0,2.3c-0.8,1.3-1,3.6-0.5,5.7c0.4,2.1,0.7,7.3,0.5,11.7c-0.1,4.4,0.5,12.5,1.3,18
				c1.6,9.4,1.6,9.6,5.8,7.8c2.4-1,6.6-2.1,9.5-2.6c2.8-0.3,6.4-1.3,7.8-2.3c1.6-1,3.3-0.5,4.1,1.3c0.7,1.6,5.3,3.4,10.1,4.2
				c8.1,1,14.3,5.7,14.3,10.9c0,1.3,1.6,5,3.4,8.1c1.9,2.9,3.8,7.6,4.1,10.2c0.4,3.6,1.4,4.7,4.3,4.2c4.6-1,7.5-2.6,10-6.3
				c1.1-1.6,2.1-2.1,2.4-1.6c0.3,0.8,3.3,1.8,6.8,2.6c4.6,1,6.9,0.5,8.6-2.6c1.3-2.1,3.2-3.9,4.3-3.9c1.1,0,2.1-1.3,2.3-3.1
				c0.5-3.9,9.8-3.9,10.7,0.3c0.5,1.8,3.1,3.1,6.2,3.4c3,0,8.6,1.8,12.4,3.9c3.9,2.1,7.7,3.9,8.5,4.4c0.8,0.3,2.2,1.6,3.1,2.6
				c0.8,0.8,4.6,2.1,8.5,2.6c3.8,0.5,10,2.9,13.7,5.2s7.2,3.6,7.7,2.9c0.4-0.8,2.1,0,3.7,1.6c1.5,1.6,6.7,2.9,11.5,2.9
				c6.3-0.3,9,0.8,9.9,3.6c0.6,2.1,2,3.6,3,3.6s2.1,1.3,2.4,2.6c0.4,1.6,1,2.1,1.5,1.3s2,0,3.2,1.6c1.3,1.8,5.5,3.4,9.3,3.6
				c7.8,0.3,9.3,1,11.4,6.3c1.2,2.9,1.6,2.9,2.6-0.5c0.6-2.3,2-4.2,3.1-4.2c1,0,4.3-0.5,7.2-1c2.9-0.5,5.5,0,5.8,1.3
				c0.3,1,1,1.6,1.5,0.5c0.5-0.8,2.4,0,4.3,1.6c2.2,1.8,4.2,1.8,5.9,0.3c1.9-2.1,2.8-1.6,3.8,1.3c0.7,2.3,2.4,3.4,4.5,2.6
				c2.1-0.5,3.8,0.5,4.5,2.6c1.1,3.4,8.3,8.1,10.3,6.8c0.4-0.5,1.4,0.5,2.2,2.1c0.7,1.8,3.5,3.1,6.1,3.1s6.3,1.8,8.3,4.2
				c4.1,4.7,8.9,6.5,11,4.2c0.8-1,2-1.6,2.5-1c1,0.8,5,1.8,13,3.6c2.2,0.5,4.7,1.6,5.5,2.6c0.8,0.8,4.8,1.8,8.9,2.3
				c6.4,0.5,7.5,0,7.9-3.9c0.2-2.6,0.9-3.9,1.4-3.1c0.6,1,3.4,2.1,6.2,2.6c10.6,1.8,14.5,3.1,15.5,4.7c0.6,1,2,1,3.1,0.3
				c1.1-1,3.5-0.5,5.3,1c1.8,1.6,5.5,3.4,8.2,4.2c6.4,1.3,11.1,5.2,13,10.2c1,2.3,3.2,3.9,5.9,3.6c2.4,0,5.9,1.3,7.9,2.9
				c2,1.8,4.1,2.6,4.6,1.6c0.6-0.8,3,0.8,5.5,3.9c4.9,5.7,8.6,4.2,10.5-4.4c0.9-4.2,1-4.2,1.1-0.5c0,8.6,8,7,12.4-2.6
				c0.9-1.8,2.9-2.9,4.6-2.3c1.6,0.8,3,0.3,3-0.8c0-3.4,9.5-3.9,13.2-0.8c3.1,2.9,4.6,2.9,8.5-0.3c2.5-2.1,5-3.1,5.4-2.3
				c0.4,0.5,3.3-1.3,6.5-4.4c4-3.9,7-5.2,10.3-4.2c3.4,0.8,5.4,0,7.6-3.6c4.7-7.6,7.7-10.7,11.5-11.2c4.5-1,7-3.9,7-8.1
				c0-4.2,5.8-6.5,7.3-2.9c1,2.3,4.3,2.9,12.7,1.3c0.8,0,2.5,0.5,3.8,1.3c2.2,1.3,2.3,0.8,1.6-7c-0.3-4.7-1.9-14.9-3.5-22.9
				c-1.6-7.8-2.9-17.2-2.8-20.9c0.1-6.5-0.6-21.6-1.7-34.4c-0.3-3.9-1.6-12.3-3-18.2c-1.3-6.5-2.5-17.2-2.8-25.5
				c-0.2-8.1-1.3-18.5-2.4-23.5c-2.4-11.5-3.3-20.1-2.1-22.2c0.5-0.8,0.5-3.4-0.1-6.3c-0.5-2.6-1-8.1-1-11.7c0-3.9-0.6-8.6-1.4-10.4
				c-0.9-2.3-1.2-7-0.8-13.6c1-18.5-0.7-51.1-3.4-64.4c-3.5-17.2-4.5-49.3-3-94.9c0.5-16.7,0.4-25.3-0.3-27.6
				c-0.6-1.8-1.4-15.1-1.8-29.2c-0.3-14.3-1-27.4-1.5-28.9c-0.6-1.8-0.7-7.6-0.4-12.8c0.5-6.3,0.3-11.2-0.8-15.1
				c-1.7-7-1.5-25.5,0.3-31.3c1-3.1,1-7,0.2-17.7c-0.9-10.4-0.9-18.8,0-32.1c0.6-10.2,1.3-24.2,1.5-31.3c0.6-24.5,1.6-43,2.5-43
				c0.5,0,0.9-7,0.9-15.6c0-11.5-0.7-19.3-2.5-29.2c-1.4-7.3-2.5-17.7-2.5-22.7c0-5.2-0.7-11.5-1.5-14.3c-1-3.4-1.1-6.5-0.4-11.5
				c0.5-3.6,0.7-9.9,0.4-13.6c-0.3-4.2,0.1-11.7,1.1-18c1.3-8.3,1.4-12.5,0.6-16.7c-1.7-9-2.8-19.6-3.6-36.1v-0.3
				c-0.4-3-0.7-6.5-1.1-10.8c-0.3-4.1-0.8-7.8-1.1-8.3s0-1.6,0.7-2.4c0.9-1.1,1-1.7,0.1-2.2c-2.6-1.7-3.3-6.4-1.7-11.3
				c1.8-5.4,1.8-4.6,1.5-19.3c-0.2-7.7-0.7-12.1-2-15c-1.2-3-1.6-6.3-1.4-12.1c0.3-10.9-0.5-16.4-2.8-18.7c-1.5-1.5-1.9-3.4-1.9-8.9
				c0-3.9,0.1-7.3,0.4-7.5c0.2-0.2,3.1-0.6,6.6-0.9c3.4-0.2,6.6-0.7,7.1-1c0.6-0.3,1-2.7,1-5.1V2.8l-22.7,0.6
				c-12.6,0.3-25.3,0.8-28.3,1.1c-3,0.2-16.4,0.6-29.8,0.9C428,5.6,417,5.9,416.9,6.1c-0.1,0.2-1,1.8-1.9,3.6
				c-1.4,2.3-1.8,5.4-1.8,12.6v9.4l-5.8,0.7c-3.3,0.4-7.1,0.2-8.5-0.3c-2.6-1-2.7-1.4-2.7-8v-6.9l4.4-2.1c2.7-1.4,4.8-3.2,5.5-4.9
				c0.7-1.5,2.3-4.1,3.6-5.6c2.3-2.7,3.2-4.6,2-4.6c-0.2,0-0.8,0.6-1.2,1.3s-2.8,1.9-5.3,2.7c-2.5,0.7-5,1.7-5.6,2.2
				c-2.4,1.7-23.3,2.4-40.5,1.2l-9.7-0.6l-4,5.3c-5.6,7.6-6,8.7-5.6,14.8c0.2,3.7,0,5.8-0.9,6.3c-1.7,1.1-14.5,1-15.2-0.2
				c-0.7-1.1-0.9-14-0.2-14.7c0.3-0.2,3-0.8,6-1.2c7.1-1,8.9-2.4,8.5-7c-0.3-4.1,2.2-3.8-21.6-2.8c-7.8,0.3-14.6,0.8-15.1,1.1
				c-1.5,0.9-1.1,8.4,0.5,9.7c1.1,0.9,1.4,3.1,1.3,8.5l-0.2,7.2l-4.2,0.6c-2.3,0.4-6,0.4-8.3,0c-3.7-0.6-4.1-0.9-4.4-3.8
				c-0.2-1.7-0.1-5,0-7.3l0.4-4.2l6.1,0.2l6.2,0.2l0.3-4.9c0.2-3.7,0-4.7-1-4.4c-0.7,0.3-4,0.1-7.3-0.4c-5.8-0.9-17.8-1-28.1-0.3
				c-2.7,0.2-11.9,0.3-20.4,0.3c-84.5-0.1-85-0.1-85,2.2c0,1-0.7,4.5-1.5,7.7c-1.8,7-2,15.9-0.2,17c1.5,1-9.8,2-13.3,1.2
				c-2.4-0.5-2.5-1-2.8-8.1c-0.3-7.2-0.1-7.7,2-8.4c1.3-0.4,3.4-0.7,4.8-0.6c2.4,0.2,3-0.7,6.7-9.8c0.1-0.3-0.4-1.4-1.2-2.4
				c-1.4-1.9-1.6-1.9-3.4-0.2c-1.6,1.5-4.6,1.8-20.3,2.2c-10,0.3-22.1,0.7-26.8,0.9c-4.7,0.2-10.9,0.4-13.7,0.4
				c-4.8,0.1-5.3,0.3-5.3,2.4c0,1.3-0.5,2.8-1.1,3.4c-0.7,0.7-0.8,1.9-0.3,3c0.4,1,0.8,5.5,0.8,10l0.1,8.3l-5,0.1
				c-5.2,0.2-9.8,0-10.3-0.5c-0.3-0.3-0.5-12-0.3-14.3c0-0.6,1.6-1.5,3.3-1.9c3.6-0.7,4.8-2,7.9-7.8c2.5-4.7,1.3-6.8-2.5-4.3
				c-1.9,1.3-6.2,1.8-19.8,2.3c-9.5,0.3-18.2,0.8-19.3,0.9c-1.1,0.2-7.7,0.4-14.7,0.4C9.4,14,8.2,14.2,8.2,15.8c0,1-0.7,2.8-1.6,4.1
				c-1.3,1.8-1.4,2.5-0.4,3.1c0.6,0.4,1.1,1,1.1,1.4c-0.3,2.3,0,3.6,0.8,3.1c0.6-0.3,1.1,4.5,1.3,12.2c0.4,17.8,0.1,20.4-2.7,23.8
				C5.3,65,4.2,67,4.2,67.9c0.1,1.3,0.3,1.3,1.5-0.3c1.9-2.6,1.9-2.1-0.4,4.2c-1.5,3.9-2,7.8-1.9,14.7c0,5.1-0.3,9.8-0.7,10.5
				c-0.9,1.4-1.2,4.2-2.3,17.8C-0.1,121.2-0.1,126.5,0.3,130.6z M449,16.5c0.4,0.3,0.7,3.8,0.7,7.6l0.1,7l-8-0.3l-8.1-0.3v-7v-7
				l4.5-0.5C443.7,15.4,448.1,15.6,449,16.5z M486.3,16.2c1.3,2,1.1,12.6-0.2,13.4c-0.7,0.4-4.5,0.7-8.5,0.8l-7.4,0.1v-7.6v-7.6
				l7.7-0.2C483.3,14.9,485.8,15.3,486.3,16.2z M266.2,19.9c0,0.4-0.4,1.1-1,1.7c-0.5,0.5-1.1,3.7-1.2,6.9l-0.3,6l-5.2,0.5
				c-7.9,0.8-9,0.1-9.5-6.2c-0.5-6.7-0.1-8.4,2.3-9.4C253.5,18.4,266.2,18.8,266.2,19.9z M376,19.3c0.8,1,0.7,11.4-0.2,12.4
				c-0.1,0.2-12.4,0.5-14.3,0.4c-1.6-0.1-2.7-9.5-1.3-12c0.9-1.8,2-2.1,7.9-2.1C372.4,18,375.3,18.5,376,19.3z M229.2,19.8
				c0,0.5-0.3,1.1-0.6,1.5c-1,1-1.1,12.1-0.1,13.4c0.7,1,0.1,1.3-2.4,1.4c-4.3,0.1-12.3-0.2-12.6-0.5c-0.6-0.5-1-11.9-0.6-13.6
				c0.4-1.6,1.7-2,6.7-2.3c3.3-0.2,6.9-0.4,7.9-0.5C228.4,19.1,229.2,19.4,229.2,19.8z M190.7,21c2.5,1,2.6,1.3,2,5.8
				c-0.4,2.6-0.8,5.6-0.9,6.7c-0.2,3.3-2.3,4.2-8.8,3.4c-3.2-0.4-6.1-0.9-6.2-1c-0.2-0.2-0.6-3.5-0.8-7.2c-0.4-7.5-0.7-7.2,7.2-8
				c1.9-0.2,3.8-0.5,4.2-0.5C187.8,20.1,189.3,20.5,190.7,21z M118.5,29.7l-0.2,7.8l-7.4,0.3l-7.4,0.3l-0.7-3.2
				c-0.3-1.7-0.6-5.1-0.6-7.5c0-4.9,0.1-4.9,10-5.2l6.5-0.3L118.5,29.7z M44.7,24.7c-0.5,1-0.9,3.4-1.1,5.3s-0.1,2.6,0.2,1.5
				c1.3-4.5,2.4-3.7,2.4,1.7c0,4.2-0.4,5.7-1.6,6.2c-1.4,0.5-1.6,0.1-1-2.4c0.3-1.9,0.2-2.9-0.4-2.5c-0.6,0.3-1,1.7-1,3.1
				c0,2.4-1.2,2.9-6.5,2.5c-6.4-0.5-6.5-0.6-6.5-8.5c0-8.5-0.3-8.2,10.4-8.5C44.8,23,45.3,23.2,44.7,24.7z M434.2,72.5
				c8.6,4.5,7.4,14.8-2.1,18.1c-4.8,1.6-11.1-1.5-12.8-6.2C416.3,76,425.9,68.2,434.2,72.5z M89.6,78.3c2.2,1.8,2.8,3.1,3,7.4
				c0.3,6.4-1.4,8.9-7,10.1c-5.3,1.2-9.7-0.6-11.8-4.7c-2.2-4.1-2-7.3,0.4-10.4C78.5,75.2,84.5,74.3,89.6,78.3z"/>
		</defs>
		<clipPath id="SVGID_00000142170758917430306910000004224076751593104267_">
			<use xlink:href="#SVGID_1_"  style="overflow:visible;"/>
		</clipPath>
		<g style="clip-path:url(#SVGID_00000142170758917430306910000004224076751593104267_);">
			<line class="st2" x1="-315.2" y1="183.8" x2="870.7" y2="183.8"/>
			<line class="st2" x1="-315.2" y1="244.7" x2="870.7" y2="244.7"/>
			<line class="st2" x1="-315.2" y1="122.8" x2="870.7" y2="122.8"/>
			<line class="st2" x1="-315.2" y1="305.7" x2="870.7" y2="305.7"/>
			<line class="st2" x1="-315.2" y1="366.7" x2="870.7" y2="366.7"/>
			<line class="st2" x1="-315.2" y1="427.6" x2="870.7" y2="427.6"/>
			<line class="st2" x1="-315.2" y1="488.6" x2="870.7" y2="488.6"/>
			<line class="st2" x1="-315.2" y1="549.6" x2="870.7" y2="549.6"/>
			<line class="st2" x1="-315.2" y1="610.5" x2="870.7" y2="610.5"/>
			<line class="st2" x1="-315.2" y1="671.5" x2="870.7" y2="671.5"/>
			<line class="st2" x1="-315.2" y1="732.4" x2="870.7" y2="732.4"/>
			<line class="st2" x1="-315.2" y1="793.4" x2="870.7" y2="793.4"/>
			<line class="st2" x1="-315.2" y1="854.4" x2="870.7" y2="854.4"/>
			<line class="st2" x1="-315.2" y1="915.3" x2="870.7" y2="915.3"/>
			<line class="st2" x1="-315.2" y1="976.3" x2="870.7" y2="976.3"/>
			<line class="st3" x1="82.4" y1="122.8" x2="82.4" y2="901.9"/>
		</g>
	</g>
</g>
</svg>
