<?xml version="1.0" encoding="UTF-8"?>
<svg id="Layer_1" data-name="Layer 1" xmlns="http://www.w3.org/2000/svg" xmlns:xlink="http://www.w3.org/1999/xlink" viewBox="0 0 552.98 1003.01">
  <defs>
    <style>
      .cls-1 {
        clip-path: url(#clippath);
      }

      .cls-2, .cls-3, .cls-4 {
        fill: none;
      }

      .cls-2, .cls-5 {
        stroke-width: 0px;
      }

      .cls-3 {
        stroke: #231f20;
      }

      .cls-3, .cls-4 {
        stroke-miterlimit: 10;
      }

      .cls-4 {
        stroke: #ee3437;
      }

      .cls-5 {
        fill: #fff;
      }
    </style>
    <clipPath id="clippath">
      <path class="cls-2" d="m.32,130.65c.45,10.82,1.37,18.64,2.78,23.33,1.1,3.91,2.1,10.43,2.1,14.6s.7,11.21,1.6,15.38c.8,4.43,1.7,10.95,1.9,14.86s.9,12.77,1.5,20.07c.7,7.56,1.1,28.41,1,49.53-.1,20.07-.3,54.48-.4,76.12,0,21.9-.3,39.88-.6,39.88s-.4,32.85-.3,72.99-.1,72.99-.5,72.99c-1,0-1.3,9.38-1.6,61.26-.2,25.81-.5,47.96-.7,49.53-.2,1.3.3,6.52,1,11.21.9,5.47,1.1,9.38.4,10.43-.5,1.04-1,7.04-1.1,13.56-.2,6.52-.7,18.51-1.3,26.59-1.1,17.47-.5,54.22,1,56.57,1.3,2.09.7,16.68-.7,17.99-.8.52-.9,2.35-.2,5.47.5,2.61.7,5.21.5,5.73-.2.78-.7,7.04-1,14.08-.4,7.3-1.2,14.6-1.7,16.16-.7,2.35-.6,3.39.3,3.39,1.2,0,1.2.52,0,2.35-.8,1.3-1,3.65-.5,5.73.4,2.09.7,7.3.5,11.73-.1,4.43.5,12.51,1.3,17.99,1.6,9.38,1.6,9.64,5.8,7.82,2.4-1.04,6.6-2.09,9.5-2.61,2.8-.26,6.4-1.3,7.8-2.35,1.6-1.04,3.3-.52,4.1,1.3.7,1.56,5.3,3.39,10.1,4.17,8.1,1.04,14.3,5.73,14.3,10.95,0,1.3,1.6,4.95,3.4,8.08,1.9,2.87,3.8,7.56,4.1,10.17.4,3.65,1.4,4.69,4.3,4.17,4.6-1.04,7.5-2.61,10-6.26,1.1-1.56,2.1-2.09,2.4-1.56.3.78,3.3,1.82,6.8,2.61,4.6,1.04,6.9.52,8.6-2.61,1.3-2.09,3.2-3.91,4.3-3.91s2.1-1.3,2.3-3.13c.5-3.91,9.8-3.91,10.7.26.5,1.82,3.1,3.13,6.2,3.39,3,0,8.6,1.82,12.4,3.91,3.9,2.09,7.7,3.91,8.5,4.43.8.26,2.2,1.56,3.1,2.61.8.78,4.6,2.09,8.5,2.61,3.8.52,10,2.87,13.7,5.21s7.2,3.65,7.7,2.87c.4-.78,2.1,0,3.7,1.56,1.5,1.56,6.7,2.87,11.5,2.87,6.3-.26,9,.78,9.9,3.65.6,2.09,2,3.65,3,3.65s2.1,1.3,2.4,2.61c.4,1.56,1,2.09,1.5,1.3s2,0,3.2,1.56c1.3,1.82,5.5,3.39,9.3,3.65,7.8.26,9.3,1.04,11.4,6.26,1.2,2.87,1.6,2.87,2.6-.52.6-2.35,2-4.17,3.1-4.17,1,0,4.3-.52,7.2-1.04,2.9-.52,5.5,0,5.8,1.3.3,1.04,1,1.56,1.5.52.5-.78,2.4,0,4.3,1.56,2.2,1.82,4.2,1.82,5.9.26,1.9-2.09,2.8-1.56,3.8,1.3.7,2.35,2.4,3.39,4.5,2.61,2.1-.52,3.8.52,4.5,2.61,1.1,3.39,8.3,8.08,10.3,6.78.4-.52,1.4.52,2.2,2.09.7,1.82,3.5,3.13,6.1,3.13s6.3,1.82,8.3,4.17c4.1,4.69,8.9,6.52,11,4.17.8-1.04,2-1.56,2.5-1.04,1,.78,5,1.82,13,3.65,2.2.52,4.7,1.56,5.5,2.61.8.78,4.8,1.82,8.9,2.35,6.4.52,7.5,0,7.9-3.91.2-2.61.9-3.91,1.4-3.13.6,1.04,3.4,2.09,6.2,2.61,10.6,1.82,14.5,3.13,15.5,4.69.6,1.04,2,1.04,3.1.26,1.1-1.04,3.5-.52,5.3,1.04s5.5,3.39,8.2,4.17c6.4,1.3,11.1,5.21,13,10.17,1,2.35,3.2,3.91,5.9,3.65,2.4,0,5.9,1.3,7.9,2.87,2,1.82,4.1,2.61,4.6,1.56.6-.78,3,.78,5.5,3.91,4.9,5.73,8.6,4.17,10.5-4.43.9-4.17,1-4.17,1.1-.52,0,8.6,8,7.04,12.4-2.61.9-1.82,2.9-2.87,4.6-2.35,1.6.78,3,.26,3-.78,0-3.39,9.5-3.91,13.2-.78,3.1,2.87,4.6,2.87,8.5-.26,2.5-2.09,5-3.13,5.4-2.35.4.52,3.3-1.3,6.5-4.43,4-3.91,7-5.21,10.3-4.17,3.4.78,5.4,0,7.6-3.65,4.7-7.56,7.7-10.69,11.5-11.21,4.5-1.04,7-3.91,7-8.08s5.8-6.52,7.3-2.87c1,2.35,4.3,2.87,12.7,1.3.8,0,2.5.52,3.8,1.3,2.2,1.3,2.3.78,1.6-7.04-.3-4.69-1.9-14.86-3.5-22.94-1.6-7.82-2.9-17.2-2.8-20.85.1-6.52-.6-21.64-1.7-34.41-.3-3.91-1.6-12.25-3-18.25-1.3-6.52-2.5-17.2-2.8-25.55-.2-8.08-1.3-18.51-2.4-23.46-2.4-11.47-3.3-20.07-2.1-22.16.5-.78.5-3.39-.1-6.26-.5-2.61-1-8.08-1-11.73,0-3.91-.6-8.6-1.4-10.43-.9-2.35-1.2-7.04-.8-13.56,1-18.51-.7-51.09-3.4-64.39-3.5-17.2-4.5-49.27-3-94.89.5-16.68.4-25.29-.3-27.63-.6-1.82-1.4-15.12-1.8-29.2-.3-14.34-1-27.37-1.5-28.93-.6-1.82-.7-7.56-.4-12.77.5-6.26.3-11.21-.8-15.12-1.7-7.04-1.5-25.55.3-31.28,1-3.13,1-7.04.2-17.73-.9-10.43-.9-18.77,0-32.06.6-10.17,1.3-24.24,1.5-31.28.6-24.5,1.6-43.01,2.5-43.01.5,0,.9-7.04.9-15.64,0-11.47-.7-19.29-2.5-29.2-1.4-7.3-2.5-17.73-2.5-22.68,0-5.21-.7-11.47-1.5-14.34-1-3.39-1.1-6.52-.4-11.47.5-3.65.7-9.91.4-13.56-.3-4.17.1-11.73,1.1-17.99,1.3-8.34,1.4-12.51.6-16.68-1.69-8.99-2.79-19.65-3.63-36.09v-.33c-.4-3.02-.75-6.55-1.07-10.76-.3-4.1-.8-7.8-1.1-8.3s0-1.6.7-2.4c.9-1.1,1-1.7.1-2.2-2.6-1.7-3.3-6.4-1.7-11.3,1.8-5.4,1.8-4.6,1.5-19.3-.2-7.7-.7-12.1-2-15-1.2-3-1.6-6.3-1.4-12.1.3-10.9-.5-16.4-2.8-18.7-1.5-1.5-1.9-3.4-1.9-8.9,0-3.9.1-7.3.4-7.5.2-.2,3.1-.6,6.6-.9,3.4-.2,6.6-.7,7.1-1,.6-.3,1-2.7,1-5.1V2.8l-22.7.6c-12.6.3-25.3.8-28.3,1.1-3,.2-16.4.6-29.8.9-13.4.2-24.4.5-24.5.7s-1,1.8-1.9,3.6c-1.4,2.3-1.8,5.4-1.8,12.6v9.4l-5.8.7c-3.3.4-7.1.2-8.5-.3-2.6-1-2.7-1.4-2.7-8v-6.9l4.4-2.1c2.7-1.4,4.8-3.2,5.5-4.9.7-1.5,2.3-4.1,3.6-5.6,2.3-2.7,3.2-4.6,2-4.6-.2,0-.8.6-1.2,1.3s-2.8,1.9-5.3,2.7c-2.5.7-5,1.7-5.6,2.2-2.4,1.7-23.3,2.4-40.5,1.2l-9.7-.6-4,5.3c-5.6,7.6-6,8.7-5.6,14.8.2,3.7,0,5.8-.9,6.3-1.7,1.1-14.5,1-15.2-.2-.7-1.1-.9-14-.2-14.7.3-.2,3-.8,6-1.2,7.1-1,8.9-2.4,8.5-7-.3-4.1,2.2-3.8-21.6-2.8-7.8.3-14.6.8-15.1,1.1-1.5.9-1.1,8.4.5,9.7,1.1.9,1.4,3.1,1.3,8.5l-.2,7.2-4.2.6c-2.3.4-6,.4-8.3,0-3.7-.6-4.1-.9-4.4-3.8-.2-1.7-.1-5,0-7.3l.4-4.2,6.1.2,6.2.2.3-4.9c.2-3.7,0-4.7-1-4.4-.7.3-4,.1-7.3-.4-5.8-.9-17.8-1-28.1-.3-2.7.2-11.9.3-20.4.3-84.5-.1-85-.1-85,2.2,0,1-.7,4.5-1.5,7.7-1.8,7-2,15.9-.2,17,1.5,1-9.8,2-13.3,1.2-2.4-.5-2.5-1-2.8-8.1-.3-7.2-.1-7.7,2-8.4,1.3-.4,3.4-.7,4.8-.6,2.4.2,3-.7,6.7-9.8.1-.3-.4-1.4-1.2-2.4-1.4-1.9-1.6-1.9-3.4-.2-1.6,1.5-4.6,1.8-20.3,2.2-10,.3-22.1.7-26.8.9s-10.9.4-13.7.4c-4.8.1-5.3.3-5.3,2.4,0,1.3-.5,2.8-1.1,3.4-.7.7-.8,1.9-.3,3,.4,1,.8,5.5.8,10l.1,8.3-5,.1c-5.2.2-9.8,0-10.3-.5-.3-.3-.5-12-.3-14.3,0-.6,1.6-1.5,3.3-1.9,3.6-.7,4.8-2,7.9-7.8,2.5-4.7,1.3-6.8-2.5-4.3-1.9,1.3-6.2,1.8-19.8,2.3-9.5.3-18.2.8-19.3.9-1.1.2-7.7.4-14.7.4-11.6.1-12.8.3-12.8,1.9,0,1-.7,2.8-1.6,4.1-1.3,1.8-1.4,2.5-.4,3.1.6.4,1.1,1,1.1,1.4-.3,2.3,0,3.6.8,3.1.6-.3,1.1,4.5,1.3,12.2.4,17.8.1,20.4-2.7,23.8-1.4,1.5-2.5,3.5-2.5,4.4.1,1.3.3,1.3,1.5-.3,1.9-2.6,1.9-2.1-.4,4.2-1.5,3.9-2,7.8-1.9,14.7,0,5.1-.3,9.8-.7,10.5-.9,1.4-1.2,4.2-2.3,17.8-.5,6.4-.52,11.7-.08,15.85ZM448.99,16.5c.4.3.7,3.8.7,7.6l.1,7-8-.3-8.1-.3v-14l4.5-.5c5.5-.6,9.9-.4,10.8.5Zm37.3-.3c1.3,2,1.1,12.6-.2,13.4-.7.4-4.5.7-8.5.8l-7.4.1v-15.2l7.7-.2c5.4-.2,7.9.2,8.4,1.1Zm-220.1,3.7c0,.4-.4,1.1-1,1.7-.5.5-1.1,3.7-1.2,6.9l-.3,6-5.2.5c-7.9.8-9,.1-9.5-6.2-.5-6.7-.1-8.4,2.3-9.4,2.2-1,14.9-.6,14.9.5Zm109.8-.6c.8,1,.7,11.4-.2,12.4-.1.2-12.4.5-14.3.4-1.6-.1-2.7-9.5-1.3-12,.9-1.8,2-2.1,7.9-2.1,4.3,0,7.2.5,7.9,1.3Zm-146.8.5c0,.5-.3,1.1-.6,1.5-1,1-1.1,12.1-.1,13.4.7,1,.1,1.3-2.4,1.4-4.3.1-12.3-.2-12.6-.5-.6-.5-1-11.9-.6-13.6.4-1.6,1.7-2,6.7-2.3,3.3-.2,6.9-.4,7.9-.5.9-.1,1.7.2,1.7.6Zm-38.5,1.2c2.5,1,2.6,1.3,2,5.8-.4,2.6-.8,5.6-.9,6.7-.2,3.3-2.3,4.2-8.8,3.4-3.2-.4-6.1-.9-6.2-1-.2-.2-.6-3.5-.8-7.2-.4-7.5-.7-7.2,7.2-8,1.9-.2,3.8-.5,4.2-.5.4-.1,1.9.3,3.3.8Zm-72.2,8.7l-.2,7.8-7.4.3-7.4.3-.7-3.2c-.3-1.7-.6-5.1-.6-7.5,0-4.9.1-4.9,10-5.2l6.5-.3-.2,7.8Zm-73.8-5c-.5,1-.9,3.4-1.1,5.3s-.1,2.6.2,1.5c1.3-4.5,2.4-3.7,2.4,1.7,0,4.2-.4,5.7-1.6,6.2-1.4.5-1.6.1-1-2.4.3-1.9.2-2.9-.4-2.5-.6.3-1,1.7-1,3.1,0,2.4-1.2,2.9-6.5,2.5-6.4-.5-6.5-.6-6.5-8.5,0-8.5-.3-8.2,10.4-8.5,5.2-.1,5.7.1,5.1,1.6Zm389.5,47.8c8.6,4.5,7.4,14.8-2.1,18.1-4.8,1.6-11.1-1.5-12.8-6.2-3-8.4,6.6-16.2,14.9-11.9Zm-344.6,5.8c2.2,1.8,2.8,3.1,3,7.4.3,6.4-1.4,8.9-7,10.1-5.3,1.2-9.7-.6-11.8-4.7-2.2-4.1-2-7.3.4-10.4,4.3-5.5,10.3-6.4,15.4-2.4Z"/>
    </clipPath>
  </defs>
  <path class="cls-5" d="m.32,130.65c.45,10.82,1.37,18.64,2.78,23.33,1.1,3.91,2.1,10.43,2.1,14.6s.7,11.21,1.6,15.38c.8,4.43,1.7,10.95,1.9,14.86s.9,12.77,1.5,20.07c.7,7.56,1.1,28.41,1,49.53-.1,20.07-.3,54.48-.4,76.12,0,21.9-.3,39.88-.6,39.88s-.4,32.85-.3,72.99-.1,72.99-.5,72.99c-1,0-1.3,9.38-1.6,61.26-.2,25.81-.5,47.96-.7,49.53-.2,1.3.3,6.52,1,11.21.9,5.47,1.1,9.38.4,10.43-.5,1.04-1,7.04-1.1,13.56-.2,6.52-.7,18.51-1.3,26.59-1.1,17.47-.5,54.22,1,56.57,1.3,2.09.7,16.68-.7,17.99-.8.52-.9,2.35-.2,5.47.5,2.61.7,5.21.5,5.73-.2.78-.7,7.04-1,14.08-.4,7.3-1.2,14.6-1.7,16.16-.7,2.35-.6,3.39.3,3.39,1.2,0,1.2.52,0,2.35-.8,1.3-1,3.65-.5,5.73.4,2.09.7,7.3.5,11.73-.1,4.43.5,12.51,1.3,17.99,1.6,9.38,1.6,9.64,5.8,7.82,2.4-1.04,6.6-2.09,9.5-2.61,2.8-.26,6.4-1.3,7.8-2.35,1.6-1.04,3.3-.52,4.1,1.3.7,1.56,5.3,3.39,10.1,4.17,8.1,1.04,14.3,5.73,14.3,10.95,0,1.3,1.6,4.95,3.4,8.08,1.9,2.87,3.8,7.56,4.1,10.17.4,3.65,1.4,4.69,4.3,4.17,4.6-1.04,7.5-2.61,10-6.26,1.1-1.56,2.1-2.09,2.4-1.56.3.78,3.3,1.82,6.8,2.61,4.6,1.04,6.9.52,8.6-2.61,1.3-2.09,3.2-3.91,4.3-3.91s2.1-1.3,2.3-3.13c.5-3.91,9.8-3.91,10.7.26.5,1.82,3.1,3.13,6.2,3.39,3,0,8.6,1.82,12.4,3.91,3.9,2.09,7.7,3.91,8.5,4.43.8.26,2.2,1.56,3.1,2.61.8.78,4.6,2.09,8.5,2.61,3.8.52,10,2.87,13.7,5.21s7.2,3.65,7.7,2.87c.4-.78,2.1,0,3.7,1.56,1.5,1.56,6.7,2.87,11.5,2.87,6.3-.26,9,.78,9.9,3.65.6,2.09,2,3.65,3,3.65s2.1,1.3,2.4,2.61c.4,1.56,1,2.09,1.5,1.3s2,0,3.2,1.56c1.3,1.82,5.5,3.39,9.3,3.65,7.8.26,9.3,1.04,11.4,6.26,1.2,2.87,1.6,2.87,2.6-.52.6-2.35,2-4.17,3.1-4.17,1,0,4.3-.52,7.2-1.04,2.9-.52,5.5,0,5.8,1.3.3,1.04,1,1.56,1.5.52.5-.78,2.4,0,4.3,1.56,2.2,1.82,4.2,1.82,5.9.26,1.9-2.09,2.8-1.56,3.8,1.3.7,2.35,2.4,3.39,4.5,2.61,2.1-.52,3.8.52,4.5,2.61,1.1,3.39,8.3,8.08,10.3,6.78.4-.52,1.4.52,2.2,2.09.7,1.82,3.5,3.13,6.1,3.13s6.3,1.82,8.3,4.17c4.1,4.69,8.9,6.52,11,4.17.8-1.04,2-1.56,2.5-1.04,1,.78,5,1.82,13,3.65,2.2.52,4.7,1.56,5.5,2.61.8.78,4.8,1.82,8.9,2.35,6.4.52,7.5,0,7.9-3.91.2-2.61.9-3.91,1.4-3.13.6,1.04,3.4,2.09,6.2,2.61,10.6,1.82,14.5,3.13,15.5,4.69.6,1.04,2,1.04,3.1.26,1.1-1.04,3.5-.52,5.3,1.04s5.5,3.39,8.2,4.17c6.4,1.3,11.1,5.21,13,10.17,1,2.35,3.2,3.91,5.9,3.65,2.4,0,5.9,1.3,7.9,2.87,2,1.82,4.1,2.61,4.6,1.56.6-.78,3,.78,5.5,3.91,4.9,5.73,8.6,4.17,10.5-4.43.9-4.17,1-4.17,1.1-.52,0,8.6,8,7.04,12.4-2.61.9-1.82,2.9-2.87,4.6-2.35,1.6.78,3,.26,3-.78,0-3.39,9.5-3.91,13.2-.78,3.1,2.87,4.6,2.87,8.5-.26,2.5-2.09,5-3.13,5.4-2.35.4.52,3.3-1.3,6.5-4.43,4-3.91,7-5.21,10.3-4.17,3.4.78,5.4,0,7.6-3.65,4.7-7.56,7.7-10.69,11.5-11.21,4.5-1.04,7-3.91,7-8.08s5.8-6.52,7.3-2.87c1,2.35,4.3,2.87,12.7,1.3.8,0,2.5.52,3.8,1.3,2.2,1.3,2.3.78,1.6-7.04-.3-4.69-1.9-14.86-3.5-22.94-1.6-7.82-2.9-17.2-2.8-20.85.1-6.52-.6-21.64-1.7-34.41-.3-3.91-1.6-12.25-3-18.25-1.3-6.52-2.5-17.2-2.8-25.55-.2-8.08-1.3-18.51-2.4-23.46-2.4-11.47-3.3-20.07-2.1-22.16.5-.78.5-3.39-.1-6.26-.5-2.61-1-8.08-1-11.73,0-3.91-.6-8.6-1.4-10.43-.9-2.35-1.2-7.04-.8-13.56,1-18.51-.7-51.09-3.4-64.39-3.5-17.2-4.5-49.27-3-94.89.5-16.68.4-25.29-.3-27.63-.6-1.82-1.4-15.12-1.8-29.2-.3-14.34-1-27.37-1.5-28.93-.6-1.82-.7-7.56-.4-12.77.5-6.26.3-11.21-.8-15.12-1.7-7.04-1.5-25.55.3-31.28,1-3.13,1-7.04.2-17.73-.9-10.43-.9-18.77,0-32.06.6-10.17,1.3-24.24,1.5-31.28.6-24.5,1.6-43.01,2.5-43.01.5,0,.9-7.04.9-15.64,0-11.47-.7-19.29-2.5-29.2-1.4-7.3-2.5-17.73-2.5-22.68,0-5.21-.7-11.47-1.5-14.34-1-3.39-1.1-6.52-.4-11.47.5-3.65.7-9.91.4-13.56-.3-4.17.1-11.73,1.1-17.99,1.3-8.34,1.4-12.51.6-16.68-1.69-8.99-2.79-19.65-3.63-36.09v-.33c-.4-3.02-.75-6.55-1.07-10.76-.3-4.1-.8-7.8-1.1-8.3s0-1.6.7-2.4c.9-1.1,1-1.7.1-2.2-2.6-1.7-3.3-6.4-1.7-11.3,1.8-5.4,1.8-4.6,1.5-19.3-.2-7.7-.7-12.1-2-15-1.2-3-1.6-6.3-1.4-12.1.3-10.9-.5-16.4-2.8-18.7-1.5-1.5-1.9-3.4-1.9-8.9,0-3.9.1-7.3.4-7.5.2-.2,3.1-.6,6.6-.9,3.4-.2,6.6-.7,7.1-1,.6-.3,1-2.7,1-5.1V2.8l-22.7.6c-12.6.3-25.3.8-28.3,1.1-3,.2-16.4.6-29.8.9-13.4.2-24.4.5-24.5.7s-1,1.8-1.9,3.6c-1.4,2.3-1.8,5.4-1.8,12.6v9.4l-5.8.7c-3.3.4-7.1.2-8.5-.3-2.6-1-2.7-1.4-2.7-8v-6.9l4.4-2.1c2.7-1.4,4.8-3.2,5.5-4.9.7-1.5,2.3-4.1,3.6-5.6,2.3-2.7,3.2-4.6,2-4.6-.2,0-.8.6-1.2,1.3s-2.8,1.9-5.3,2.7c-2.5.7-5,1.7-5.6,2.2-2.4,1.7-23.3,2.4-40.5,1.2l-9.7-.6-4,5.3c-5.6,7.6-6,8.7-5.6,14.8.2,3.7,0,5.8-.9,6.3-1.7,1.1-14.5,1-15.2-.2-.7-1.1-.9-14-.2-14.7.3-.2,3-.8,6-1.2,7.1-1,8.9-2.4,8.5-7-.3-4.1,2.2-3.8-21.6-2.8-7.8.3-14.6.8-15.1,1.1-1.5.9-1.1,8.4.5,9.7,1.1.9,1.4,3.1,1.3,8.5l-.2,7.2-4.2.6c-2.3.4-6,.4-8.3,0-3.7-.6-4.1-.9-4.4-3.8-.2-1.7-.1-5,0-7.3l.4-4.2,6.1.2,6.2.2.3-4.9c.2-3.7,0-4.7-1-4.4-.7.3-4,.1-7.3-.4-5.8-.9-17.8-1-28.1-.3-2.7.2-11.9.3-20.4.3-84.5-.1-85-.1-85,2.2,0,1-.7,4.5-1.5,7.7-1.8,7-2,15.9-.2,17,1.5,1-9.8,2-13.3,1.2-2.4-.5-2.5-1-2.8-8.1-.3-7.2-.1-7.7,2-8.4,1.3-.4,3.4-.7,4.8-.6,2.4.2,3-.7,6.7-9.8.1-.3-.4-1.4-1.2-2.4-1.4-1.9-1.6-1.9-3.4-.2-1.6,1.5-4.6,1.8-20.3,2.2-10,.3-22.1.7-26.8.9s-10.9.4-13.7.4c-4.8.1-5.3.3-5.3,2.4,0,1.3-.5,2.8-1.1,3.4-.7.7-.8,1.9-.3,3,.4,1,.8,5.5.8,10l.1,8.3-5,.1c-5.2.2-9.8,0-10.3-.5-.3-.3-.5-12-.3-14.3,0-.6,1.6-1.5,3.3-1.9,3.6-.7,4.8-2,7.9-7.8,2.5-4.7,1.3-6.8-2.5-4.3-1.9,1.3-6.2,1.8-19.8,2.3-9.5.3-18.2.8-19.3.9-1.1.2-7.7.4-14.7.4-11.6.1-12.8.3-12.8,1.9,0,1-.7,2.8-1.6,4.1-1.3,1.8-1.4,2.5-.4,3.1.6.4,1.1,1,1.1,1.4-.3,2.3,0,3.6.8,3.1.6-.3,1.1,4.5,1.3,12.2.4,17.8.1,20.4-2.7,23.8-1.4,1.5-2.5,3.5-2.5,4.4.1,1.3.3,1.3,1.5-.3,1.9-2.6,1.9-2.1-.4,4.2-1.5,3.9-2,7.8-1.9,14.7,0,5.1-.3,9.8-.7,10.5-.9,1.4-1.2,4.2-2.3,17.8-.5,6.4-.52,11.7-.08,15.85ZM448.99,16.5c.4.3.7,3.8.7,7.6l.1,7-8-.3-8.1-.3v-14l4.5-.5c5.5-.6,9.9-.4,10.8.5Zm37.3-.3c1.3,2,1.1,12.6-.2,13.4-.7.4-4.5.7-8.5.8l-7.4.1v-15.2l7.7-.2c5.4-.2,7.9.2,8.4,1.1Zm-220.1,3.7c0,.4-.4,1.1-1,1.7-.5.5-1.1,3.7-1.2,6.9l-.3,6-5.2.5c-7.9.8-9,.1-9.5-6.2-.5-6.7-.1-8.4,2.3-9.4,2.2-1,14.9-.6,14.9.5Zm109.8-.6c.8,1,.7,11.4-.2,12.4-.1.2-12.4.5-14.3.4-1.6-.1-2.7-9.5-1.3-12,.9-1.8,2-2.1,7.9-2.1,4.3,0,7.2.5,7.9,1.3Zm-146.8.5c0,.5-.3,1.1-.6,1.5-1,1-1.1,12.1-.1,13.4.7,1,.1,1.3-2.4,1.4-4.3.1-12.3-.2-12.6-.5-.6-.5-1-11.9-.6-13.6.4-1.6,1.7-2,6.7-2.3,3.3-.2,6.9-.4,7.9-.5.9-.1,1.7.2,1.7.6Zm-38.5,1.2c2.5,1,2.6,1.3,2,5.8-.4,2.6-.8,5.6-.9,6.7-.2,3.3-2.3,4.2-8.8,3.4-3.2-.4-6.1-.9-6.2-1-.2-.2-.6-3.5-.8-7.2-.4-7.5-.7-7.2,7.2-8,1.9-.2,3.8-.5,4.2-.5.4-.1,1.9.3,3.3.8Zm-72.2,8.7l-.2,7.8-7.4.3-7.4.3-.7-3.2c-.3-1.7-.6-5.1-.6-7.5,0-4.9.1-4.9,10-5.2l6.5-.3-.2,7.8Zm-73.8-5c-.5,1-.9,3.4-1.1,5.3s-.1,2.6.2,1.5c1.3-4.5,2.4-3.7,2.4,1.7,0,4.2-.4,5.7-1.6,6.2-1.4.5-1.6.1-1-2.4.3-1.9.2-2.9-.4-2.5-.6.3-1,1.7-1,3.1,0,2.4-1.2,2.9-6.5,2.5-6.4-.5-6.5-.6-6.5-8.5,0-8.5-.3-8.2,10.4-8.5,5.2-.1,5.7.1,5.1,1.6Zm389.5,47.8c8.6,4.5,7.4,14.8-2.1,18.1-4.8,1.6-11.1-1.5-12.8-6.2-3-8.4,6.6-16.2,14.9-11.9Zm-344.6,5.8c2.2,1.8,2.8,3.1,3,7.4.3,6.4-1.4,8.9-7,10.1-5.3,1.2-9.7-.6-11.8-4.7-2.2-4.1-2-7.3.4-10.4,4.3-5.5,10.3-6.4,15.4-2.4Z"/>
  <g class="cls-1">
    <g>
      <line class="cls-3" x1="-315.15" y1="183.78" x2="870.68" y2="183.78"/>
      <line class="cls-3" x1="-315.15" y1="244.75" x2="870.68" y2="244.75"/>
      <line class="cls-3" x1="-315.15" y1="122.82" x2="870.68" y2="122.82"/>
      <line class="cls-3" x1="-315.15" y1="305.71" x2="870.68" y2="305.71"/>
      <line class="cls-3" x1="-315.15" y1="366.67" x2="870.68" y2="366.67"/>
      <line class="cls-3" x1="-315.15" y1="427.63" x2="870.68" y2="427.63"/>
      <line class="cls-3" x1="-315.15" y1="488.6" x2="870.68" y2="488.6"/>
      <line class="cls-3" x1="-315.15" y1="549.56" x2="870.68" y2="549.56"/>
      <line class="cls-3" x1="-315.15" y1="610.52" x2="870.68" y2="610.52"/>
      <line class="cls-3" x1="-315.15" y1="671.49" x2="870.68" y2="671.49"/>
      <line class="cls-3" x1="-315.15" y1="732.45" x2="870.68" y2="732.45"/>
      <line class="cls-3" x1="-315.15" y1="793.41" x2="870.68" y2="793.41"/>
      <line class="cls-3" x1="-315.15" y1="854.38" x2="870.68" y2="854.38"/>
      <line class="cls-3" x1="-315.15" y1="915.34" x2="870.68" y2="915.34"/>
      <line class="cls-3" x1="-315.15" y1="976.3" x2="870.68" y2="976.3"/>
      <line class="cls-4" x1="82.45" y1="122.82" x2="82.45" y2="901.86"/>
    </g>
  </g>
</svg>